<svg width="158" height="73" viewBox="0 0 158 73" fill="none" xmlns="http://www.w3.org/2000/svg">
<path d="M20.6 44.75L18.4 37.6L35.75 20H45.8L20.6 44.75ZM14.4 55V20H22.9V55H14.4ZM36.85 55L23.85 37.9L29.6 32.95L46.75 55H36.85ZM60.9168 55.5C57.9835 55.5 55.4335 54.9167 53.2668 53.75C51.1001 52.55 49.4168 50.9333 48.2168 48.9C47.0168 46.8333 46.4168 44.4833 46.4168 41.85C46.4168 39.8167 46.7501 37.95 47.4168 36.25C48.0835 34.55 49.0168 33.0833 50.2168 31.85C51.4168 30.5833 52.8335 29.6167 54.4668 28.95C56.1335 28.25 57.9501 27.9 59.9168 27.9C61.7835 27.9 63.4835 28.2333 65.0168 28.9C66.5835 29.5667 67.9335 30.5 69.0668 31.7C70.2001 32.9 71.0668 34.3167 71.6668 35.95C72.2668 37.5833 72.5335 39.3667 72.4668 41.3L72.4168 43.45H51.2668L50.1168 38.95H65.9168L65.0668 39.9V38.9C65.0001 38.0667 64.7335 37.3333 64.2668 36.7C63.8335 36.0333 63.2501 35.5167 62.5168 35.15C61.7835 34.7833 60.9501 34.6 60.0168 34.6C58.7168 34.6 57.6001 34.8667 56.6668 35.4C55.7668 35.9 55.0835 36.65 54.6168 37.65C54.1501 38.6167 53.9168 39.8167 53.9168 41.25C53.9168 42.7167 54.2168 44 54.8168 45.1C55.4501 46.1667 56.3501 47 57.5168 47.6C58.7168 48.2 60.1335 48.5 61.7668 48.5C62.9001 48.5 63.9001 48.3333 64.7668 48C65.6668 47.6667 66.6335 47.1 67.6668 46.3L71.4168 51.6C70.3835 52.5 69.2835 53.2333 68.1168 53.8C66.9501 54.3667 65.7501 54.7833 64.5168 55.05C63.3168 55.35 62.1168 55.5 60.9168 55.5ZM87.6137 55.55C85.3137 55.55 83.2637 54.9667 81.4637 53.8C79.697 52.6 78.297 50.9667 77.2637 48.9C76.2303 46.8 75.7137 44.4167 75.7137 41.75C75.7137 39.0833 76.2303 36.7167 77.2637 34.65C78.297 32.55 79.7137 30.9 81.5137 29.7C83.3137 28.5 85.3803 27.9 87.7137 27.9C88.9137 27.9 90.0637 28.0833 91.1637 28.45C92.2637 28.8167 93.2637 29.3167 94.1637 29.95C95.0637 30.5833 95.797 31.3167 96.3637 32.15C96.9303 32.95 97.2637 33.7833 97.3637 34.65L95.4637 35.1V18H103.514V55H96.0637L95.6137 48.95L97.2137 49.2C97.1137 50.0333 96.7803 50.8333 96.2137 51.6C95.6803 52.3667 94.9803 53.05 94.1137 53.65C93.247 54.2167 92.247 54.6667 91.1137 55C90.0137 55.3667 88.847 55.55 87.6137 55.55ZM89.6637 48.9C90.897 48.9 91.9637 48.6 92.8637 48C93.7637 47.4 94.447 46.5667 94.9137 45.5C95.4137 44.4333 95.6637 43.1833 95.6637 41.75C95.6637 40.2833 95.4137 39.0167 94.9137 37.95C94.447 36.8833 93.7637 36.05 92.8637 35.45C91.9637 34.85 90.897 34.55 89.6637 34.55C88.4303 34.55 87.3637 34.85 86.4637 35.45C85.597 36.05 84.9137 36.8833 84.4137 37.95C83.9137 39.0167 83.6637 40.2833 83.6637 41.75C83.6637 43.1833 83.9137 44.4333 84.4137 45.5C84.9137 46.5667 85.597 47.4 86.4637 48C87.3637 48.6 88.4303 48.9 89.6637 48.9ZM110.729 55V28.45H118.729V55H110.729ZM114.729 23.2C113.229 23.2 112.045 22.85 111.179 22.15C110.345 21.4167 109.929 20.3833 109.929 19.05C109.929 17.85 110.362 16.8667 111.229 16.1C112.095 15.3333 113.262 14.95 114.729 14.95C116.229 14.95 117.395 15.3167 118.229 16.05C119.062 16.75 119.479 17.75 119.479 19.05C119.479 20.2833 119.045 21.2833 118.179 22.05C117.345 22.8167 116.195 23.2 114.729 23.2ZM135.195 55.5C132.595 55.5 130.295 55.0833 128.295 54.25C126.329 53.4167 124.762 52.3 123.595 50.9L128.445 46.7C129.479 47.7333 130.645 48.5 131.945 49C133.245 49.4667 134.479 49.7 135.645 49.7C136.112 49.7 136.529 49.65 136.895 49.55C137.262 49.45 137.562 49.3167 137.795 49.15C138.062 48.95 138.262 48.7333 138.395 48.5C138.529 48.2333 138.595 47.9333 138.595 47.6C138.595 46.9333 138.295 46.4167 137.695 46.05C137.395 45.8833 136.895 45.6833 136.195 45.45C135.495 45.2167 134.595 44.95 133.495 44.65C131.929 44.25 130.562 43.7833 129.395 43.25C128.262 42.6833 127.329 42.0333 126.595 41.3C125.929 40.6 125.412 39.8333 125.045 39C124.679 38.1333 124.495 37.1667 124.495 36.1C124.495 34.8667 124.779 33.75 125.345 32.75C125.945 31.75 126.729 30.8833 127.695 30.15C128.695 29.4167 129.829 28.8667 131.095 28.5C132.395 28.1 133.729 27.9 135.095 27.9C136.562 27.9 137.962 28.0667 139.295 28.4C140.629 28.7333 141.862 29.2 142.995 29.8C144.162 30.4 145.195 31.1167 146.095 31.95L141.895 36.65C141.295 36.0833 140.612 35.5833 139.845 35.15C139.112 34.6833 138.345 34.3167 137.545 34.05C136.745 33.7833 136.012 33.65 135.345 33.65C134.845 33.65 134.395 33.7 133.995 33.8C133.629 33.8667 133.312 34 133.045 34.2C132.779 34.3667 132.579 34.5833 132.445 34.85C132.312 35.0833 132.245 35.3667 132.245 35.7C132.245 36.0333 132.329 36.35 132.495 36.65C132.695 36.95 132.962 37.2 133.295 37.4C133.629 37.6 134.162 37.8333 134.895 38.1C135.629 38.3333 136.629 38.6333 137.895 39C139.462 39.4333 140.812 39.9167 141.945 40.45C143.079 40.9833 143.979 41.6167 144.645 42.35C145.179 42.9167 145.579 43.5833 145.845 44.35C146.112 45.0833 146.245 45.8833 146.245 46.75C146.245 48.45 145.762 49.9667 144.795 51.3C143.862 52.6 142.562 53.6333 140.895 54.4C139.229 55.1333 137.329 55.5 135.195 55.5Z" fill="#F2F2F0"/>
</svg>
